<svg width="20" height="20" viewBox="0 0 20 20" fill="none" xmlns="http://www.w3.org/2000/svg">
<g clip-path="url(#clip0_1_391)">
<path d="M8 4.5L10 5.5L12 4.5L14 4L16 5L17 6.5L17.5 8L17 10.5L14.5 13L10 17.5L5.5 13L3 10.5L2.5 8L3 6.5L4 5L6 4L8 4.5Z" fill="#ED147C"/>
<path d="M16.25 11.3099L10 17.4999L3.75 11.3099C3.33775 10.9088 3.01303 10.4266 2.79629 9.89381C2.57954 9.36099 2.47546 8.78907 2.49061 8.21406C2.50576 7.63904 2.6398 7.07339 2.88429 6.55272C3.12879 6.03206 3.47844 5.56766 3.91124 5.18876C4.34403 4.80987 4.85058 4.52468 5.39901 4.35118C5.94743 4.17767 6.52583 4.1196 7.0978 4.18061C7.66977 4.24163 8.22291 4.42041 8.72239 4.7057C9.22187 4.99099 9.65687 5.37661 10 5.83828C10.3446 5.37996 10.7801 4.99771 11.2792 4.71545C11.7784 4.43318 12.3304 4.25699 12.9008 4.19788C13.4711 4.13877 14.0476 4.19803 14.594 4.37194C15.1404 4.54585 15.645 4.83067 16.0763 5.20858C16.5076 5.58649 16.8562 6.04935 17.1003 6.56819C17.3445 7.08703 17.4789 7.65068 17.4953 8.22387C17.5116 8.79706 17.4094 9.36744 17.1951 9.89932C16.9808 10.4312 16.6591 10.9131 16.25 11.3149" stroke="#ED147C" stroke-linecap="round" stroke-linejoin="round"/>
</g>
<defs>
<clipPath id="clip0_1_391">
<rect width="20" height="20" fill="white"/>
</clipPath>
</defs>
</svg>
