<svg width="24" height="24" viewBox="0 0 24 24" fill="none" xmlns="http://www.w3.org/2000/svg">
<g clip-path="url(#clip0_1_296)">
<path d="M19.5001 13.5717L12.0001 20.9997L4.50006 13.5717C4.00536 13.0903 3.6157 12.5117 3.3556 11.8723C3.09551 11.2329 2.97062 10.5466 2.98879 9.85662C3.00697 9.1666 3.16782 8.48782 3.46121 7.86303C3.75461 7.23823 4.17419 6.68094 4.69354 6.22627C5.21289 5.77159 5.82076 5.42938 6.47887 5.22117C7.13697 5.01296 7.83106 4.94327 8.51743 5.01649C9.20379 5.08971 9.86756 5.30425 10.4669 5.64659C11.0663 5.98894 11.5883 6.45169 12.0001 7.00569C12.4136 6.45571 12.9362 5.99701 13.5352 5.65829C14.1341 5.31958 14.7966 5.10814 15.481 5.03721C16.1654 4.96628 16.8571 5.03739 17.5128 5.24608C18.1685 5.45477 18.7741 5.79656 19.2916 6.25005C19.8091 6.70354 20.2275 7.25897 20.5205 7.88158C20.8135 8.50419 20.9748 9.18057 20.9944 9.8684C21.0139 10.5562 20.8913 11.2407 20.6342 11.8789C20.3771 12.5172 19.991 13.0955 19.5001 13.5777" stroke="#272932" stroke-linecap="round" stroke-linejoin="round"/>
</g>
<defs>
<clipPath id="clip0_1_296">
<rect width="24" height="24" fill="white"/>
</clipPath>
</defs>
</svg>
