<svg width="32" height="32" viewBox="0 0 32 32" fill="none" xmlns="http://www.w3.org/2000/svg">
<path fill-rule="evenodd" clip-rule="evenodd" d="M16.0499 5.41349L16.0034 5.38601L16.0034 5.386C13.9336 4.16291 12.3196 3.20918 11.0068 2.58759C9.68952 1.96388 8.52566 1.59802 7.3826 1.70999C5.58734 1.88584 3.95226 2.81887 2.88756 4.27499C2.20965 5.20213 1.93254 6.39025 1.79938 7.8416C1.66667 9.28804 1.66668 11.1628 1.66669 13.567V13.621V18.3792V18.4332C1.66668 20.8374 1.66667 22.7122 1.79938 24.1586C1.93254 25.6099 2.20965 26.7981 2.88756 27.7252C3.95226 29.1813 5.58734 30.1143 7.3826 30.2902C8.52566 30.4022 9.68952 30.0363 11.0068 29.4126C12.3196 28.791 13.9336 27.8373 16.0034 26.6142L16.0499 26.5867L20.0761 24.2076L20.1223 24.1803L20.1223 24.1803C22.1295 22.9942 23.6963 22.0684 24.8431 21.2408C25.9955 20.409 26.8576 19.5857 27.3125 18.5527C28.0288 16.9263 28.0288 15.0739 27.3125 13.4475C26.8576 12.4145 25.9955 11.5912 24.8431 10.7594C23.6963 9.93182 22.1295 9.00598 20.1224 7.81997L20.1223 7.81988L20.0761 7.79259L16.0499 5.41349Z" fill="white"/>
</svg>
