<svg width="18" height="17" viewBox="0 0 18 17" fill="none" xmlns="http://www.w3.org/2000/svg">
<path d="M8.11684 0.662956C8.49282 -0.0449574 9.50718 -0.0449562 9.88316 0.662957L11.8392 4.3458C11.9837 4.61795 12.2457 4.80826 12.5492 4.86162L16.6562 5.58386C17.4457 5.72269 17.7591 6.68739 17.202 7.26373L14.3039 10.2621C14.0897 10.4837 13.9897 10.7916 14.0327 11.0967L14.615 15.2259C14.7269 16.0196 13.9062 16.6159 13.186 16.2641L9.43878 14.4344C9.16189 14.2992 8.83811 14.2992 8.56122 14.4344L4.81403 16.2641C4.09375 16.6159 3.27312 16.0196 3.38504 15.2259L3.9673 11.0967C4.01033 10.7916 3.91028 10.4837 3.69612 10.2621L0.797971 7.26373C0.240892 6.68739 0.554346 5.72268 1.3438 5.58386L5.45084 4.86162C5.75433 4.80826 6.01627 4.61795 6.16081 4.3458L8.11684 0.662956Z" fill="#FFDC5F"/>
</svg>
