<svg width="40" height="40" viewBox="0 0 40 40" fill="none" xmlns="http://www.w3.org/2000/svg">
<path d="M26.875 13.125H13.75L11.875 16.25L14.375 15H18.75V25L17.5 26.875H23.125L21.875 25V15H26.25L28.75 16.25L26.875 13.125Z" fill="white"/>
<path d="M12.1864 6.92293H30.077C30.2469 6.92293 30.3847 6.78517 30.3847 6.61523V4.92293C30.3847 4.75299 30.2469 4.61523 30.077 4.61523H9.35564C8.36234 4.61523 7.48048 5.25084 7.16637 6.19317L6.92311 6.92293L3.98119 15.7487C3.91478 15.9479 4.06307 16.1537 4.27309 16.1537H7.83672C7.97791 16.1537 8.10098 16.0576 8.13523 15.9206L9.94765 8.67092C10.2045 7.64361 11.1275 6.92293 12.1864 6.92293Z" fill="#35BBD1"/>
<path d="M28.1983 33.0771H10.3078C10.1379 33.0771 10.0001 33.2148 10.0001 33.3848V35.0771C10.0001 35.247 10.1379 35.3848 10.3078 35.3848H31.0291C32.0224 35.3848 32.9043 34.7492 33.2184 33.8068L33.4617 33.0771L36.4036 24.2513C36.47 24.0521 36.3217 23.8463 36.1117 23.8463H32.548C32.4069 23.8463 32.2838 23.9424 32.2495 24.0794L30.4371 31.3291C30.1803 32.3564 29.2572 33.0771 28.1983 33.0771Z" fill="#35BBD1"/>
</svg>
